# xmcd
#
# Track frame offsets: 
#        300
#        3739
#        14858
#        19343
#        34114
#        44024
#        57876
#        70829
#        75831
#        92514
#        107457
#        122806
#        136348
#        147314
#        160858
#        176350
#        197175
#
# Disc length: 2761 seconds
#
# Revision: 0
# Processed by: cddbd v1.5.2PL0 Copyright (c) Steve Scherf et al.
# Submitted via: ExactAudioCopy v0.99pb5
#
DISCID=e60ac511
DTITLE=Mighty Mo Rodgers - Redneck Blues
DYEAR=2007
DGENRE=Blues
TTITLE0=Welcome To Doo Dah
TTITLE1=The Antebellum South Shuffle (Pt.1)
TTITLE2=The Ashes Of Nicodemus
TTITLE3=The Antebellum South Shuffle (Pt.2)
TTITLE4=John Brown Blues
TTITLE5=Hambone Blues
TTITLE6=Don't Die With A Lie (On Your Lip)
TTITLE7=No Second Line (This Time)
TTITLE8=There But For The Grace Of God
TTITLE9=Death Of The Middle Class
TTITLE10=Truth, Justice And The Blues
TTITLE11=Blues Ain't Devil Music
TTITLE12=Everything But The Burden
TTITLE13=Gangs, Guns And Testosterone
TTITLE14=They Bombed The Taj Mahal!
TTITLE15=Have You Seen The American Dream? (Pt.2)
TTITLE16=Redneck Blues
EXTD=
EXTT0=
EXTT1=
EXTT2=
EXTT3=
EXTT4=
EXTT5=
EXTT6=
EXTT7=
EXTT8=
EXTT9=
EXTT10=
EXTT11=
EXTT12=
EXTT13=
EXTT14=
EXTT15=
EXTT16=
PLAYORDER=
